<svg width="76" height="76" viewBox="0 0 76 76" fill="none" xmlns="http://www.w3.org/2000/svg">
<path d="M38.0428 75.1916C51.5095 75.1916 68.9089 54.4777 68.9089 41.0156C68.9089 27.5536 45.3724 24.1287 31.9058 24.1287C18.4391 24.1287 22.655 38.6032 4.15343 49.459C-10.0821 57.8118 15.013 75.1916 38.0428 75.1916Z" fill="#D9CEF1"/>
<path d="M47.0947 63.43C47.0947 63.43 54.5742 71.84 58.5363 70.1461C62.4984 68.4522 59.9489 63.43 59.9489 63.43L55.921 62.5126L49.8196 55.3582L46.9788 56.8736L47.0947 63.43Z" fill="#AC46C7"/>
<mask id="mask0" mask-type="alpha" maskUnits="userSpaceOnUse" x="0" y="24" width="69" height="52">
<path d="M38.0428 75.1916C51.5095 75.1916 68.9089 54.4777 68.9089 41.0156C68.9089 27.5536 45.3724 24.1287 31.9058 24.1287C18.4391 24.1287 22.655 38.6032 4.15343 49.459C-10.0821 57.8118 15.013 75.1916 38.0428 75.1916Z" fill="#D9CEF1"/>
</mask>
<g mask="url(#mask0)">
<path d="M18.4229 71.1839C19.9179 72.7357 21.6113 74.0832 23.4594 75.1916L30.4443 63.5084L25.8056 55.3677L18.4229 71.1839Z" fill="#AC46C7"/>
<path d="M44.2946 51.8451L44.1755 51.8044L37.8236 50.3547H37.8017L31.4529 51.8138L31.3182 51.8451C30.5978 52.105 26.8424 53.5171 25.7931 55.355C25.7931 55.355 27.9198 63.8297 29.4734 74.8416C34.8251 76.842 40.709 76.9041 46.1018 75.0169C47.6678 63.9017 49.8071 55.355 49.8071 55.355C48.7704 53.5265 45.0181 52.1144 44.2946 51.8451Z" fill="#8729A0"/>
</g>
<path d="M43.9876 51.8139C43.5278 51.1214 42.9075 50.55 42.1796 50.1483C41.4517 49.7466 40.6375 49.5263 39.8062 49.5063H37.6357H35.4683C34.637 49.5263 33.8228 49.7466 33.0949 50.1483C32.367 50.55 31.7467 51.1214 31.2869 51.8139C31.2869 51.8139 30.8578 56.3101 33.8928 59.9296C33.8928 59.9296 35.3806 57.1273 37.6513 56.3539C39.9096 57.1273 41.4099 59.9296 41.4099 59.9296C44.4167 56.3101 43.9876 51.8139 43.9876 51.8139Z" fill="#AC46C7"/>
<path d="M41.0873 46.0808L37.6607 44.9568L34.2342 46.0714C34.2342 46.0714 35.6593 49.2776 33.1974 51.532C33.1974 51.532 34.466 55.1045 37.6639 55.8654C40.8586 55.1045 42.1303 51.532 42.1303 51.532C39.659 49.2776 41.0873 46.0808 41.0873 46.0808Z" fill="#E2B9AD"/>
<path d="M34.9515 24.4294C34.9515 24.4294 32.7809 22.5508 29.8398 24.2885C26.2222 26.4333 23.8637 34.2233 25.6021 38.6412C27.6975 43.964 32.7809 45.9428 32.7809 45.9428L42.6314 44.9064C42.6314 44.9064 51.3293 41.8599 47.7023 29.8774C45.538 22.7449 37.0249 21.433 34.9515 24.4294Z" fill="#1E1927"/>
<path d="M45.3313 36.0145C44.9335 29.7023 37.6889 29.4049 37.1878 29.3923H37.1564C36.6459 29.3923 29.3982 29.7054 29.0129 36.0145C28.778 39.7342 31.0144 48.2256 37.1564 48.2569H37.1878C43.3299 48.2256 45.5662 39.7342 45.3313 36.0145Z" fill="#F2CFC4"/>
<path d="M29.9369 40.2602C29.9369 40.2602 28.6841 37.9934 27.7726 38.8388C26.8612 39.6841 27.9104 41.8602 28.9064 42.74C29.9025 43.6199 30.6604 41.926 30.6604 41.926L29.9369 40.2602Z" fill="#F2CFC4"/>
<path d="M28.2988 39.8594C28.2988 39.8594 29.5517 40.3384 29.4702 41.3216C29.4264 41.9102 28.6716 41.4844 28.7373 41.2057C28.7466 41.1294 28.7836 41.0591 28.8414 41.0082C28.8991 40.9574 28.9736 40.9296 29.0505 40.9302C28.8699 40.529 28.6148 40.1656 28.2988 39.8594Z" fill="#E2B9AD"/>
<path d="M44.3854 40.2602C44.3854 40.2602 45.6382 37.9934 46.5497 38.8388C47.4611 39.6841 46.415 41.8602 45.4159 42.74C44.4167 43.6199 43.665 41.926 43.665 41.926L44.3854 40.2602Z" fill="#F2CFC4"/>
<path d="M46.0391 39.8594C46.0391 39.8594 44.7863 40.3384 44.8677 41.3216C44.9116 41.9102 45.6664 41.4844 45.6038 41.2057C45.5945 41.1294 45.5575 41.0591 45.4997 41.0082C45.442 40.9574 45.3675 40.9296 45.2906 40.9302C45.4703 40.5292 45.7243 40.1659 46.0391 39.8594Z" fill="#E2B9AD"/>
<path d="M49.97 48.833L53.1647 42.4519C53.4795 41.8224 53.5792 41.107 53.4486 40.4154C53.3179 39.7238 52.964 39.0941 52.4412 38.6227L49.7288 36.1836L47.4674 40.5671L49.9731 42.1044L47.3922 46.6006L44.8583 45.727L42.8005 49.9571L46.5591 50.5833C47.2398 50.698 47.9394 50.5915 48.5551 50.2792C49.1707 49.967 49.6699 49.4656 49.9794 48.8487L49.97 48.833Z" fill="#5F25DD"/>
<path d="M29.2604 39.2896C29.2604 39.2896 30.8108 32.9304 35.4401 31.4087C35.4401 31.4087 38.1525 33.8916 41.3723 34.9124C44.5921 35.9331 45.159 39.18 45.159 39.18L46.6656 34.5241L43.6901 28.9133L34.6414 26.5869L27.0146 31.9911V36.8818L29.2604 39.2896Z" fill="#1E1927"/>
<path d="M55.5577 48.9456C55.5577 48.9456 55.1223 43.2752 53.243 42.1387C52.5352 41.7066 50.1109 41.3496 49.4563 41.8663C49.2727 41.9839 49.1267 42.1518 49.0357 42.3499C48.9446 42.548 48.9123 42.7681 48.9426 42.984C48.9426 42.984 48.8017 42.7868 47.9779 44.202C47.1542 45.6173 47.3797 46.5785 47.3797 46.5785C47.3797 46.5785 50.1266 46.6411 50.4711 47.4113C50.8156 48.1816 50.9096 49.6031 51.9996 50.7428C51.9902 50.7365 54.8717 51.9107 55.5577 48.9456Z" fill="#F2CFC4"/>
<path d="M53.8256 47.3396L55.5577 48.9458C55.5577 48.9458 60.2903 60.8657 60.6317 65.2774C60.9731 69.689 55.9805 70.8319 55.0973 67.801C54.214 64.7701 52.532 50.048 52.532 50.048L53.8256 47.3396Z" fill="#F2CFC4"/>
<path d="M38.3654 60.8123C38.3654 60.9213 38.3331 61.0278 38.2725 61.1184C38.212 61.2091 38.1259 61.2797 38.0251 61.3214C37.9244 61.3631 37.8136 61.374 37.7066 61.3528C37.5997 61.3315 37.5015 61.279 37.4244 61.202C37.3473 61.1249 37.2948 61.0267 37.2735 60.9198C37.2523 60.8129 37.2632 60.7021 37.3049 60.6014C37.3466 60.5007 37.4173 60.4147 37.5079 60.3541C37.5986 60.2936 37.7052 60.2612 37.8142 60.2612C37.9604 60.2612 38.1006 60.3193 38.204 60.4226C38.3074 60.526 38.3654 60.6661 38.3654 60.8123Z" fill="#AC46C7"/>
<path d="M38.3654 67.0181C38.3654 67.1271 38.3331 67.2336 38.2725 67.3243C38.212 67.4149 38.1259 67.4855 38.0251 67.5272C37.9244 67.5689 37.8136 67.5798 37.7066 67.5586C37.5997 67.5373 37.5015 67.4848 37.4244 67.4078C37.3473 67.3307 37.2948 67.2325 37.2735 67.1256C37.2523 67.0187 37.2632 66.9079 37.3049 66.8072C37.3466 66.7065 37.4173 66.6205 37.5079 66.5599C37.5986 66.4994 37.7052 66.467 37.8142 66.467C37.9604 66.467 38.1006 66.5251 38.204 66.6284C38.3074 66.7318 38.3654 66.872 38.3654 67.0181Z" fill="#AC46C7"/>
<path d="M49.3399 35.7512L46.7896 40.6155L47.8327 41.162L50.383 36.2978L49.3399 35.7512Z" fill="white"/>
<path d="M44.7341 44.9607L42.1837 49.825L43.2268 50.3715L45.7771 45.5072L44.7341 44.9607Z" fill="white"/>
<path d="M22.235 28.9259C22.235 28.9259 19.3065 28.0492 17.446 24.1667C20.1801 23.0967 22.4317 21.0694 23.781 18.4626C25.1304 15.8558 25.4855 12.8475 24.7802 9.99828C24.0749 7.14911 22.3572 4.65354 19.9474 2.97673C17.5376 1.29992 14.6001 0.556291 11.6823 0.884459C8.76463 1.21263 6.06583 2.59019 4.089 4.76039C2.11217 6.93058 0.992194 9.74532 0.937836 12.6799C0.883478 15.6145 1.89845 18.4688 3.79355 20.7107C5.68866 22.9525 8.33459 24.429 11.2382 24.865C12.121 24.9988 13.0161 25.0334 13.9067 24.9683C15.4477 26.9784 18.0317 28.9572 22.235 28.9259Z" fill="#5F25DD"/>
<path d="M13.0736 7.52197C14.9153 7.52197 16.1399 8.41432 16.1399 10.0738C16.1399 12.1904 14.2607 12.5379 13.8566 13.997C13.8167 14.1484 13.7328 14.2846 13.6155 14.3884C13.4832 14.5077 13.3113 14.5735 13.1331 14.5731C13.0171 14.5717 12.9029 14.5434 12.7997 14.4904C12.6965 14.4373 12.6071 14.3611 12.5384 14.2675C12.4697 14.174 12.4238 14.0658 12.4042 13.9515C12.3845 13.8371 12.3917 13.7198 12.4252 13.6087C12.8731 12.1058 14.3327 11.8459 14.3327 10.3931C14.3327 9.5916 13.7595 9.20021 12.8982 9.20021C12.1684 9.20021 11.6735 9.51332 11.4793 10.1395C11.4375 10.2849 11.3549 10.4153 11.2413 10.5153C11.1073 10.6382 10.9314 10.7054 10.7496 10.7031H10.6713C10.5715 10.7019 10.4731 10.6808 10.3816 10.641C10.2902 10.6012 10.2076 10.5435 10.1388 10.4714C10.0531 10.3785 9.99162 10.2659 9.95992 10.1435C9.92823 10.0212 9.92727 9.89288 9.95714 9.77006C10.3142 8.32352 11.4355 7.52197 13.0736 7.52197ZM14.0383 17.0905C14.0494 17.2329 14.0309 17.3761 13.984 17.5111C13.9371 17.646 13.8628 17.7699 13.7657 17.8747C13.6686 17.9796 13.5509 18.0633 13.42 18.1206C13.289 18.1778 13.1476 18.2073 13.0047 18.2073C12.8618 18.2073 12.7204 18.1778 12.5894 18.1206C12.4584 18.0633 12.3407 17.9796 12.2437 17.8747C12.1466 17.7699 12.0723 17.646 12.0254 17.5111C11.9785 17.3761 11.96 17.2329 11.9711 17.0905C11.9711 16.8164 12.08 16.5536 12.2738 16.3598C12.4677 16.1661 12.7306 16.0572 13.0047 16.0572C13.2788 16.0572 13.5417 16.1661 13.7356 16.3598C13.9294 16.5536 14.0383 16.8164 14.0383 17.0905Z" fill="white"/>
<path d="M68.6058 47.4487C66.6451 47.4487 64.7648 48.2273 63.3784 49.6132C61.992 50.9991 61.2132 52.8788 61.2132 54.8388C61.2141 55.3694 61.2712 55.8984 61.3835 56.417C58.7847 56.5529 56.4404 55.2577 56.4404 55.2577C58.0977 57.76 60.5702 58.3473 62.1547 58.4449C62.7901 59.581 63.7144 60.5292 64.834 61.1936C65.9537 61.858 67.2291 62.215 68.5311 62.2284C69.8331 62.2419 71.1156 61.9113 72.2487 61.2702C73.3819 60.629 74.3256 59.7001 74.9843 58.5773C75.643 57.4545 75.9933 56.1777 75.9999 54.8761C76.0065 53.5745 75.669 52.2942 75.0217 51.1648C74.3744 50.0355 73.4402 49.097 72.3135 48.4445C71.1869 47.7919 69.9078 47.4484 68.6058 47.4487Z" fill="#5F25DD"/>
<path d="M65.8519 54.4926L68.2957 58.0202C68.3157 58.0483 68.3421 58.0711 68.3728 58.0869C68.4034 58.1027 68.4373 58.1109 68.4718 58.1109C68.5062 58.1109 68.5402 58.1027 68.5708 58.0869C68.6014 58.0711 68.6278 58.0483 68.6478 58.0202L72.2838 53.0311C72.3147 52.9882 72.3287 52.9355 72.3234 52.883C72.318 52.8304 72.2936 52.7817 72.2548 52.7459C72.2159 52.7101 72.1653 52.6898 72.1125 52.6888C72.0597 52.6877 72.0083 52.706 71.9681 52.7403L68.5215 55.7476C68.4842 55.78 68.4368 55.7986 68.3873 55.8004C68.3379 55.8021 68.2893 55.7869 68.2498 55.7571L66.1658 54.1999C66.1253 54.1661 66.0739 54.1482 66.0212 54.1496C65.9684 54.151 65.918 54.1716 65.8795 54.2076C65.8409 54.2436 65.8168 54.2924 65.8117 54.3449C65.8067 54.3974 65.821 54.4499 65.8519 54.4926Z" fill="white"/>
</svg>
