<svg width="64" height="68" viewBox="0 0 64 68" fill="none" xmlns="http://www.w3.org/2000/svg">
<path d="M35.3109 40.1123L19.876 34.4284C19.3738 34.2434 18.8157 34.4977 18.6295 34.9963L15.3446 43.7895C15.1583 44.2881 15.4144 44.8422 15.9166 45.0272L31.3515 50.7111C31.8537 50.8961 32.4118 50.6418 32.5981 50.1432L35.8829 41.35C36.0692 40.8514 35.8131 40.2973 35.3109 40.1123Z" fill="#F9E8FE"/>
<g style="mix-blend-mode:multiply">
<path d="M28.5564 43.7799L35.3053 40.8464C35.313 40.8413 35.3187 40.8337 35.3214 40.825C35.3241 40.8162 35.3236 40.8067 35.3201 40.7982C35.3165 40.7897 35.3101 40.7827 35.302 40.7784C35.2938 40.7741 35.2844 40.7727 35.2753 40.7745L25.4044 44.1844C25.2671 44.2345 25.1164 44.2345 24.979 44.1845C24.8417 44.1345 24.7267 44.0377 24.6545 43.9114L19.4804 34.9597C19.4748 34.9518 19.4664 34.9462 19.4569 34.9439C19.4474 34.9417 19.4374 34.943 19.4288 34.9476C19.4202 34.9522 19.4135 34.9597 19.4102 34.9688C19.4068 34.9779 19.4068 34.9879 19.4104 34.997L22.5574 41.5736L15.9035 44.3234C15.8941 44.3274 15.8866 44.3348 15.8825 44.3441C15.8785 44.3535 15.8782 44.364 15.8817 44.3735C15.8852 44.3831 15.8923 44.3909 15.9014 44.3954C15.9106 44.3999 15.9212 44.4008 15.931 44.3978L22.8448 42.1642L24.2121 45.0108C24.2811 45.1551 24.4039 45.2671 24.5546 45.3231C24.7053 45.3792 24.872 45.3749 25.0195 45.3111L27.9415 44.0553L31.7584 50.2324C31.7634 50.2413 31.7717 50.2479 31.7815 50.2507C31.7914 50.2534 31.8019 50.2522 31.8109 50.2473C31.8198 50.2424 31.8264 50.2341 31.8292 50.2243C31.8321 50.2146 31.8308 50.2041 31.8259 50.1952L28.5564 43.7799Z" fill="#EDEEFC"/>
</g>
<path d="M45.7588 0.642107C46.7115 0.570989 47.6678 0.722262 48.5511 1.08382C49.4343 1.44538 50.2201 2.00719 50.8455 2.72429C51.7596 3.73575 52.3263 5.00945 52.4637 6.36151C52.6012 7.71357 52.3024 9.07403 51.6104 10.2465L52.6527 12.7431L50.3281 11.7926C49.2358 12.7445 47.8546 13.307 46.4037 13.3909C45.4372 13.4596 44.4679 13.3008 43.5749 12.9274C42.6818 12.5539 41.8902 11.9763 41.2645 11.2417C40.4698 10.3392 39.9463 9.23314 39.754 8.04963C39.5616 6.86612 39.708 5.65275 40.1765 4.54784C40.6449 3.44294 41.4167 2.49094 42.4037 1.80038C43.3907 1.10982 44.5532 0.708479 45.7588 0.642107Z" fill="#5F25DD"/>
<path d="M44.8362 6.14128C44.744 6.14036 44.6532 6.11786 44.5713 6.07561C44.4894 6.03336 44.4187 5.97255 44.3649 5.89811C44.3111 5.82366 44.2757 5.73768 44.2616 5.64712C44.2476 5.55657 44.2552 5.464 44.2838 5.37691C44.5338 4.6026 45.2037 4.16333 46.1585 4.16333C47.3208 4.16333 48.0382 4.70187 48.0382 5.67472C48.0382 6.8188 47.0384 7.08931 46.7659 7.81646C46.7278 7.92561 46.6567 8.02042 46.5623 8.08794C46.4679 8.15546 46.3549 8.19239 46.2385 8.19369C46.1463 8.19222 46.0559 8.16806 45.9754 8.12338C45.8949 8.07869 45.8269 8.01487 45.7773 7.93765C45.7278 7.86042 45.6983 7.77219 45.6915 7.68088C45.6848 7.58956 45.701 7.49801 45.7386 7.41442C46.0311 6.78406 46.6285 6.58055 46.656 5.96508C46.6582 5.81091 46.601 5.66171 46.4959 5.54817C46.3908 5.43462 46.246 5.36534 46.091 5.35457C45.9494 5.33023 45.8036 5.35555 45.6787 5.42617C45.5537 5.4968 45.4574 5.60835 45.4062 5.74172C45.3646 5.85682 45.2888 5.95667 45.1888 6.02803C45.0888 6.09939 44.9694 6.13889 44.8462 6.14128H44.8362ZM46.8359 9.73238C46.8026 9.90976 46.704 10.0685 46.5593 10.1777C46.4147 10.287 46.2343 10.3389 46.0532 10.3234C45.8721 10.3079 45.7033 10.2262 45.5796 10.094C45.4558 9.96184 45.386 9.78872 45.3837 9.60829C45.3746 9.43166 45.4349 9.25842 45.5519 9.12509C45.669 8.99176 45.8336 8.90875 46.0111 8.89354C46.1245 8.88043 46.2395 8.89324 46.3473 8.93099C46.455 8.96874 46.5526 9.03043 46.6327 9.11135C46.7128 9.19228 46.7731 9.2903 46.8092 9.39793C46.8453 9.50556 46.8562 9.61995 46.8409 9.73238H46.8359Z" fill="white"/>
<path d="M17.1533 23.1838C16.4034 23.2459 15.0087 20.923 14.5237 22.4616C14.2988 23.1689 14.7737 24.8268 13.5714 24.1542C13.1964 23.9433 12.4266 23.226 11.9167 23.4668C11.5417 23.643 11.6042 24.1815 11.6167 24.5165C11.6167 24.7796 11.8392 25.5092 11.6842 25.7425C11.3043 26.2984 10.6094 25.683 10.1669 25.5092C8.5622 24.8789 9.07462 26.1719 9.1671 27.2266C9.28708 28.5792 8.01479 27.5468 7.22242 27.5195C6.78749 27.5046 6.57252 27.5989 6.51253 28.0381C6.43004 28.6611 7.52737 29.8275 6.76249 30.2171C6.20758 30.4976 5.23524 29.6612 4.65283 30.0881C4.30789 30.3362 4.42787 30.6738 4.56035 31.0237C4.69283 31.3736 4.91779 31.6367 5.04277 31.9643C5.41271 32.9272 4.73532 32.7584 4.01544 32.7584C2.45569 32.7584 2.53818 33.3615 3.36304 34.4957C4.71032 36.3446 1.34337 35.0168 1.40336 36.4116C1.43335 37.0519 2.43319 37.3199 2.62816 37.8435C3.0181 38.9008 1.08091 38.6327 0.71847 39.2383C0.531 39.5535 0.668478 39.7346 0.885943 39.9828C1.13531 40.2088 1.41146 40.4038 1.70831 40.5635C1.92577 40.7124 2.27322 40.8241 2.30071 41.1219C2.33321 41.4793 1.92577 41.5612 1.62082 41.7225C0.421018 42.3479 -0.0189101 42.8343 1.42836 43.4821C1.80079 43.6459 2.51568 43.7476 2.3557 44.3134C2.28572 44.5616 1.58583 44.8967 1.39086 45.058C1.06841 45.321 0.640983 45.6238 0.873445 46.068C1.10591 46.5123 2.07075 46.5346 2.43819 46.6413C3.82797 47.0384 1.95827 47.8822 1.7583 48.5895C1.65332 48.9518 1.68831 49.0586 1.99076 49.2695C2.21667 49.3675 2.46176 49.4141 2.70815 49.406C2.87812 49.4234 3.04809 49.4259 3.20807 49.4383C3.82797 49.4879 4.12292 49.4383 3.97544 50.0736C3.81047 50.7908 2.22573 52.1583 3.94045 52.1483C4.33038 52.1483 4.94029 51.8679 5.28523 52.0019C5.92013 52.2501 5.50519 52.7787 5.33272 53.2428C5.17775 53.6548 4.8328 54.3099 5.33272 54.6028C5.96512 54.9726 6.81248 53.9054 7.39239 54.0891C8.28224 54.372 7.20992 55.8139 7.64235 56.412C7.9173 56.7842 8.24725 56.608 8.60219 56.4269C8.88965 56.2804 9.48205 55.6054 9.81949 55.6253C10.4544 55.6625 10.3194 56.5609 10.4094 57.0076C10.8418 59.3131 11.9816 56.4219 12.8515 56.3226C13.0865 56.2953 13.1015 55.9231 12.8515 55.9504C12.3066 56.0124 11.9941 56.5559 11.6642 56.9431C11.3342 57.3302 11.0943 57.7918 10.8118 57.1515C10.6419 56.7619 10.7243 56.2358 10.6069 55.8263C10.1469 54.2305 9.06962 56.201 8.25975 56.1911C7.3524 56.1911 8.87965 53.7689 7.47238 53.7094C6.94246 53.687 5.68017 54.6326 5.4602 54.0096C5.26023 53.4463 6.30506 52.6496 6.04761 52.0069C5.90763 51.6569 5.63267 51.6421 5.27773 51.6371C4.92279 51.6321 4.54035 51.7562 4.17041 51.7612C3.32305 51.7761 3.50802 51.4857 3.88296 50.8951C4.49786 49.9247 4.88279 49.2248 3.45303 49.0908C2.95311 49.0437 2.10325 49.2447 2.26072 48.5002C2.32071 48.2148 2.93561 47.8177 3.11058 47.5968C3.34055 47.3089 3.56801 47.0335 3.36054 46.6786C3.09558 46.217 2.18573 46.3038 1.7758 46.1102C0.563495 45.5394 2.4007 45.0406 2.72814 44.4475C3.41303 43.2066 0.538499 43.3183 0.978428 42.4943C1.34837 41.8069 3.6255 41.7498 2.4032 40.6256C1.82829 40.097 0.361028 39.5932 1.81829 39.1142C2.19323 38.9901 3.10058 38.866 3.22806 38.3697C3.32055 38.0024 2.92061 37.645 2.70065 37.4167C2.45069 37.1486 1.66082 36.6721 1.98826 36.1758C2.13074 35.9599 3.14308 36.007 3.44303 35.9276C5.10776 35.5181 3.39054 34.5577 3.22056 33.7065C2.97061 32.5177 5.64517 33.8504 5.60268 32.4358C5.58268 31.7682 4.2379 30.6539 5.27273 30.4057C5.81014 30.2767 6.64751 30.9021 7.17492 30.5323C8.33474 29.7406 5.4527 27.3681 8.09727 28.1498C8.5247 28.2789 9.23709 28.5792 9.53454 28.0803C9.89948 27.4698 9.01213 26.5268 9.28458 25.9882C9.84449 24.926 12.0566 27.7701 12.0341 25.4174C12.0341 25.2139 11.7842 24.1021 11.9841 23.9408C12.3391 23.6454 13.2839 24.4694 13.5689 24.6084C13.9313 24.787 14.2713 24.9459 14.5687 24.6084C15.0212 24.112 14.3963 22.3748 15.2386 22.3748C15.9185 22.3748 16.3109 23.6157 17.1233 23.5487C17.3733 23.5288 17.3733 23.1565 17.1233 23.1764L17.1533 23.1838Z" fill="#EDEEFC"/>
<g style="mix-blend-mode:multiply">
<path d="M17.1533 23.1838C16.4034 23.2459 15.0087 20.923 14.5237 22.4616C14.2988 23.1689 14.7737 24.8268 13.5714 24.1542C13.1964 23.9433 12.4266 23.226 11.9167 23.4668C11.5417 23.643 11.6042 24.1815 11.6167 24.5165C11.6167 24.7796 11.8392 25.5092 11.6842 25.7425C11.3043 26.2984 10.6094 25.683 10.1669 25.5092C8.5622 24.8789 9.07462 26.1719 9.1671 27.2266C9.28708 28.5792 8.01479 27.5468 7.22242 27.5195C6.78749 27.5046 6.57252 27.5989 6.51253 28.0381C6.43004 28.6611 7.52737 29.8275 6.76249 30.2171C6.20758 30.4976 5.23524 29.6612 4.65283 30.0881C4.30789 30.3362 4.42787 30.6738 4.56035 31.0237C4.69283 31.3736 4.91779 31.6367 5.04277 31.9643C5.41271 32.9272 4.73532 32.7584 4.01544 32.7584C2.45569 32.7584 2.53818 33.3615 3.36304 34.4957C4.71032 36.3446 1.34337 35.0168 1.40336 36.4116C1.43335 37.0519 2.43319 37.3199 2.62816 37.8435C3.0181 38.9008 1.08091 38.6327 0.71847 39.2383C0.531 39.5535 0.668478 39.7346 0.885943 39.9828C1.13531 40.2088 1.41146 40.4038 1.70831 40.5635C1.92577 40.7124 2.27322 40.8241 2.30071 41.1219C2.33321 41.4793 1.92577 41.5612 1.62082 41.7225C0.421018 42.3479 -0.0189101 42.8343 1.42836 43.4821C1.80079 43.6459 2.51568 43.7476 2.3557 44.3134C2.28572 44.5616 1.58583 44.8967 1.39086 45.058C1.06841 45.321 0.640983 45.6238 0.873445 46.068C1.10591 46.5123 2.07075 46.5346 2.43819 46.6413C3.82797 47.0384 1.95827 47.8822 1.7583 48.5895C1.65332 48.9518 1.68831 49.0586 1.99076 49.2695C2.21667 49.3675 2.46176 49.4141 2.70815 49.406C2.87812 49.4234 3.04809 49.4259 3.20807 49.4383C3.82797 49.4879 4.12292 49.4383 3.97544 50.0736C3.81047 50.7908 2.22573 52.1583 3.94045 52.1483C4.33038 52.1483 4.94029 51.8679 5.28523 52.0019C5.92013 52.2501 5.50519 52.7787 5.33272 53.2428C5.17775 53.6548 4.8328 54.3099 5.33272 54.6028C5.96512 54.9726 6.81248 53.9054 7.39239 54.0891C8.28224 54.372 7.20992 55.8139 7.64235 56.412C7.9173 56.7842 8.24725 56.608 8.60219 56.4269C8.88965 56.2804 9.48205 55.6054 9.81949 55.6253C10.4544 55.6625 10.3194 56.5609 10.4094 57.0076C10.8418 59.3131 11.9816 56.4219 12.8515 56.3226C13.0865 56.2953 13.1015 55.9231 12.8515 55.9504C12.3066 56.0124 11.9941 56.5559 11.6642 56.9431C11.3342 57.3302 11.0943 57.7918 10.8118 57.1515C10.6419 56.7619 10.7243 56.2358 10.6069 55.8263C10.1469 54.2305 9.06962 56.201 8.25975 56.1911C7.3524 56.1911 8.87965 53.7689 7.47238 53.7094C6.94246 53.687 5.68017 54.6326 5.4602 54.0096C5.26023 53.4463 6.30506 52.6496 6.04761 52.0069C5.90763 51.6569 5.63267 51.6421 5.27773 51.6371C4.92279 51.6321 4.54035 51.7562 4.17041 51.7612C3.32305 51.7761 3.50802 51.4857 3.88296 50.8951C4.49786 49.9247 4.88279 49.2248 3.45303 49.0908C2.95311 49.0437 2.10325 49.2447 2.26072 48.5002C2.32071 48.2148 2.93561 47.8177 3.11058 47.5968C3.34055 47.3089 3.56801 47.0335 3.36054 46.6786C3.09558 46.217 2.18573 46.3038 1.7758 46.1102C0.563495 45.5394 2.4007 45.0406 2.72814 44.4475C3.41303 43.2066 0.538499 43.3183 0.978428 42.4943C1.34837 41.8069 3.6255 41.7498 2.4032 40.6256C1.82829 40.097 0.361028 39.5932 1.81829 39.1142C2.19323 38.9901 3.10058 38.866 3.22806 38.3697C3.32055 38.0024 2.92061 37.645 2.70065 37.4167C2.45069 37.1486 1.66082 36.6721 1.98826 36.1758C2.13074 35.9599 3.14308 36.007 3.44303 35.9276C5.10776 35.5181 3.39054 34.5577 3.22056 33.7065C2.97061 32.5177 5.64517 33.8504 5.60268 32.4358C5.58268 31.7682 4.2379 30.6539 5.27273 30.4057C5.81014 30.2767 6.64751 30.9021 7.17492 30.5323C8.33474 29.7406 5.4527 27.3681 8.09727 28.1498C8.5247 28.2789 9.23709 28.5792 9.53454 28.0803C9.89948 27.4698 9.01213 26.5268 9.28458 25.9882C9.84449 24.926 12.0566 27.7701 12.0341 25.4174C12.0341 25.2139 11.7842 24.1021 11.9841 23.9408C12.3391 23.6454 13.2839 24.4694 13.5689 24.6084C13.9313 24.787 14.2713 24.9459 14.5687 24.6084C15.0212 24.112 14.3963 22.3748 15.2386 22.3748C15.9185 22.3748 16.3109 23.6157 17.1233 23.5487C17.3733 23.5288 17.3733 23.1565 17.1233 23.1764L17.1533 23.1838Z" fill="white"/>
</g>
<path d="M26.4118 11.9215C26.4118 11.9215 28.0466 12.8273 26.4518 15.1477C25.4245 16.6517 23.4298 18.6222 21.6626 18.6048C20.6478 18.5874 19.8879 17.6121 19.8879 17.6121L15.0087 20.5753C15.0087 20.5753 14.7612 23.4095 17.8007 23.953C20.8402 24.4965 26.3444 20.2303 28.5765 17.9347C31.1061 15.3264 32.5758 13.0333 32.8083 11.0032C33.1083 8.45196 30.0738 7.1416 30.0738 7.1416L26.4118 11.9215Z" fill="#F9E8FE"/>
<path d="M25.2296 10.9908C25.0271 11.4326 26.5094 12.5866 26.7569 12.5022C27.0043 12.4178 30.8637 8.12689 30.8587 7.52383C30.8537 6.92076 29.3389 5.87594 28.8965 6.21098C28.4541 6.54602 25.3846 10.6409 25.2296 10.9908Z" fill="#EDEEFC"/>
<path d="M14.2038 19.3818C13.9813 19.8484 14.6287 21.4714 15.0536 21.4714C15.4786 21.4714 20.4178 18.3692 20.5527 18.1186C20.6877 17.8679 19.9603 16.5302 19.4304 16.57C18.843 16.6196 14.5012 18.7787 14.2038 19.3818Z" fill="#EDEEFC"/>
<path d="M25.2296 10.9908C25.0271 11.4326 26.5094 12.5866 26.7569 12.5022C27.0043 12.4178 30.8637 8.12689 30.8587 7.52383C30.8537 6.92076 29.3389 5.87594 28.8965 6.21098C28.4541 6.54602 25.3846 10.6409 25.2296 10.9908Z" fill="white"/>
<path d="M14.2038 19.3818C13.9813 19.8484 14.6287 21.4714 15.0536 21.4714C15.4786 21.4714 20.4178 18.3692 20.5527 18.1186C20.6877 17.8679 19.9603 16.5302 19.4304 16.57C18.843 16.6196 14.5012 18.7787 14.2038 19.3818Z" fill="white"/>
<path d="M45.5062 51.6246C44.2392 50.9039 42.8698 50.3776 41.4443 50.0635C40.7594 49.9122 40.0221 49.7906 39.5071 49.319C39.1816 48.9998 38.9581 48.5924 38.8648 48.1476C38.6298 47.1773 38.8448 46.1424 39.2422 45.2241C39.6817 44.3226 40.1828 43.452 40.7419 42.6183C41.5218 41.3377 42.2042 39.9479 42.3167 38.4564C42.4242 37.0319 41.9168 35.4957 40.7744 34.6494C40.7195 34.608 40.662 34.5683 40.602 34.5303H46.9759L45.5062 51.6246Z" fill="#FD67B0"/>
<path d="M23.5623 57.2755C23.5623 57.2755 21.1902 56.4616 20.5103 56.871C19.8304 57.2805 18.3131 59.154 18.878 59.5609C19.443 59.9679 21.2102 58.5907 21.2102 58.5907C21.2102 58.5907 21.1227 59.3996 21.5726 59.3897C22.0225 59.3798 22.7274 58.345 24.5221 58.6999" fill="url(#paint0_linear)"/>
<path d="M40.977 50.7139C40.977 50.7139 24.8871 56.6949 23.5748 57.2756L24.5346 58.7001C24.5346 58.7001 37.2676 58.2981 40.977 56.6353" fill="#5F25DD"/>
<path d="M39.5098 31.0732C39.5098 31.0732 38.2725 35.0089 35.1455 34.2148L35.038 34.5026C35.038 34.5026 38.2 35.5498 39.8372 31.2916" fill="#282F70"/>
<path d="M34.9854 35.0763C35.4244 35.0763 35.7803 34.723 35.7803 34.2872C35.7803 33.8513 35.4244 33.498 34.9854 33.498C34.5464 33.498 34.1906 33.8513 34.1906 34.2872C34.1906 34.723 34.5464 35.0763 34.9854 35.0763Z" fill="#282F70"/>
<path d="M51.6927 45.661C50.6566 44.2399 49.6931 42.768 48.8057 41.251C47.7308 38.0843 50.1454 35.5156 50.1454 35.5156L48.1683 36.1907C48.1683 36.1038 48.1858 36.0194 48.1958 35.9425C49.5255 34.9498 50.4929 33.5377 50.4004 31.6267C49.7255 17.9225 40.227 21.7196 38.9573 22.5336C36.2827 24.2286 35.9577 27.8247 36.0077 29.9937C35.8922 30.7622 35.5613 31.4829 35.0529 32.0735C35.4367 32.3108 35.8599 32.4788 36.3027 32.5698C36.574 33.8445 37.1598 35.0323 38.0074 36.0269C38.642 36.7212 39.4361 37.253 40.3221 37.5771C41.2082 37.9012 42.16 38.0079 43.0966 37.8882C44.3464 37.7269 45.1987 38.4069 44.8463 40.2756C44.3239 43.1172 41.3694 46.9764 40.482 49.5549C38.7323 54.6102 40.0821 59.941 40.0821 59.941C46.2861 63.3708 53.1475 60.3356 53.1475 60.3356C54.2373 57.3575 55.0371 50.2821 51.6927 45.661Z" fill="url(#paint1_linear)"/>
<path d="M43.2265 44.3431C43.2265 44.3431 47.1534 45.6411 49.8255 42.8813C49.8255 42.8813 55.2271 50.2447 55.0096 60.8591H39.3997C39.3997 60.8591 37.5475 51.4359 43.2265 44.3431Z" fill="url(#paint2_linear)"/>
<path d="M44.2014 46.3832C44.2014 46.3832 40.5645 51.2921 42.2367 61.7701H55.9845C55.9845 61.7701 55.6571 48.8451 49.8205 42.8889L47.6684 45.1076L44.2014 46.3832Z" fill="#4912BF"/>
<path d="M43.2265 44.3429C43.2265 44.3429 42.1392 46.4249 43.9164 46.8517C46.026 47.348 49.4805 45.1544 49.8254 42.8813C49.8179 42.8813 46.9284 45.1196 43.2265 44.3429Z" fill="white"/>
<path d="M37.7274 17.2822C40.272 15.9098 43.4765 15.8751 44.7263 15.9992C47.4758 16.2722 49.9504 17.1482 51.6726 19.089C53.3948 21.0297 54.2572 23.633 54.3722 26.219C54.4622 28.3087 54.1222 30.567 55.227 32.3564C55.9619 33.5576 57.2442 34.3418 57.9916 35.543C58.5579 36.4483 58.7795 37.5248 58.6165 38.5781C58.1791 41.38 55.5495 42.6631 56.2044 45.733C56.5368 47.2841 58.9314 48.1155 57.8041 50.4632C57.0543 52.0267 52.715 52.8805 52.0551 48.6218C51.6051 45.6933 51.8951 44.6311 49.2005 42.7723C44.7263 39.685 45.8836 35.5752 46.2535 33.7809C47.4758 27.986 43.6439 27.6758 41.3518 28.259" fill="#FD67B0"/>
<path d="M13.0565 60.2936L7.90479 42.5491C7.879 42.4588 7.87149 42.3644 7.88271 42.2712C7.89392 42.178 7.92363 42.088 7.97012 42.0063C8.01661 41.9246 8.07896 41.8528 8.15356 41.7952C8.22815 41.7376 8.31352 41.6952 8.40471 41.6706C8.4958 41.6449 8.5911 41.6374 8.68512 41.6485C8.77913 41.6596 8.87001 41.6891 8.9525 41.7353C9.03499 41.7814 9.10746 41.8433 9.16574 41.9174C9.22402 41.9915 9.26695 42.0763 9.29207 42.1669L14.4437 59.9114C14.4695 60.0017 14.477 60.0962 14.4658 60.1893C14.4546 60.2825 14.4249 60.3725 14.3784 60.4542C14.3319 60.5359 14.2696 60.6077 14.195 60.6653C14.1204 60.7229 14.035 60.7653 13.9438 60.79C13.8527 60.8156 13.7574 60.8231 13.6634 60.812C13.5694 60.8009 13.4785 60.7714 13.396 60.7253C13.3135 60.6791 13.2411 60.6172 13.1828 60.5431C13.1245 60.469 13.0816 60.3842 13.0565 60.2936Z" fill="#AC46C7"/>
<path d="M32.4383 60.8838H13.8389C13.6514 60.8838 13.4714 60.8108 13.3377 60.6803C13.204 60.5499 13.1273 60.3726 13.124 60.1865C13.124 59.9983 13.1993 59.8178 13.3334 59.6847C13.4674 59.5516 13.6493 59.4768 13.8389 59.4768H32.4383C32.6279 59.4768 32.8098 59.5516 32.9438 59.6847C33.0779 59.8178 33.1532 59.9983 33.1532 60.1865C33.15 60.3726 33.0732 60.5499 32.9395 60.6803C32.8058 60.8108 32.6258 60.8838 32.4383 60.8838Z" fill="#AC46C7"/>
<g style="mix-blend-mode:multiply">
<path d="M14.2613 59.874H14.2088C14.039 59.874 13.9013 60.0107 13.9013 60.1792V60.2314C13.9013 60.3999 14.039 60.5366 14.2088 60.5366H14.2613C14.4311 60.5366 14.5687 60.3999 14.5687 60.2314V60.1792C14.5687 60.0107 14.4311 59.874 14.2613 59.874Z" fill="#A6B8D4"/>
</g>
<g style="mix-blend-mode:multiply">
<path d="M16.0585 59.874H15.3536C15.1838 59.874 15.0462 60.0107 15.0462 60.1792V60.2314C15.0462 60.3999 15.1838 60.5366 15.3536 60.5366H16.0585C16.2283 60.5366 16.366 60.3999 16.366 60.2314V60.1792C16.366 60.0107 16.2283 59.874 16.0585 59.874Z" fill="#A6B8D4"/>
</g>
<g style="mix-blend-mode:multiply">
<path d="M31.3685 59.874H30.6636C30.4938 59.874 30.3562 60.0107 30.3562 60.1792V60.2314C30.3562 60.3999 30.4938 60.5366 30.6636 60.5366H31.3685C31.5383 60.5366 31.6759 60.3999 31.6759 60.2314V60.1792C31.6759 60.0107 31.5383 59.874 31.3685 59.874Z" fill="#A6B8D4"/>
</g>
<g style="mix-blend-mode:multiply">
<path d="M26.082 59.874H17.1659C16.9961 59.874 16.8585 60.0107 16.8585 60.1792V60.2314C16.8585 60.3999 16.9961 60.5366 17.1659 60.5366H26.082C26.2518 60.5366 26.3894 60.3999 26.3894 60.2314V60.1792C26.3894 60.0107 26.2518 59.874 26.082 59.874Z" fill="#A6B8D4"/>
</g>
<path d="M27.8766 58.3172C27.8766 58.3172 23.0524 58.5281 22.9249 56.6373C22.7975 54.7464 27.2642 55.6447 27.2642 55.6447C27.2642 55.6447 26.2269 54.6149 26.8618 54.2352C27.4967 53.8555 28.819 56.8482 28.819 56.8482" fill="url(#paint3_linear)"/>
<path d="M44.7687 50.6269C45.3986 49.3861 46.4235 46.8845 49.213 47.1798C53.5723 47.6414 54.7996 59.2014 43.8789 67.8999C43.8789 67.8999 35.6552 66.8179 27.8815 58.3179C27.8815 58.3179 28.0964 57.2135 28.8238 56.8536C28.8238 56.8536 37.4049 58.6579 41.4793 60.3281C41.4768 60.3182 43.8789 52.3915 44.7687 50.6269Z" fill="#5F25DD"/>
<path d="M39.0622 16.6692C36.7511 17.4394 34.7332 18.8946 33.2807 20.8385C31.0985 23.8712 32.4083 27.3903 34.8779 26.7054C35.7828 26.4572 36.6676 25.8839 37.5775 26.1222C37.8007 26.1723 38.0046 26.2852 38.1649 26.4473C38.5448 26.8692 38.4149 27.5219 38.2799 28.0728C38.0974 28.8173 38.0299 29.7654 38.7023 30.1401C39.2022 30.433 39.8646 30.1798 40.3545 29.8547C41.1769 29.3063 41.5293 28.8794 42.4442 28.5022C43.754 27.9611 45.9886 28.3111 46.4436 31.1279L48.4432 30.3163" fill="#FD67B0"/>
<path d="M48.6657 28.8297C48.813 29.5649 48.7374 30.327 48.4486 31.0197C48.1598 31.7123 47.6707 32.3044 47.0431 32.7212C46.4156 33.138 45.6776 33.3607 44.9226 33.3613C44.1676 33.3619 43.4293 33.1403 42.8011 32.7244C42.1728 32.3086 41.6828 31.7172 41.393 31.025C41.1031 30.3328 41.0264 29.5709 41.1725 28.8354C41.3186 28.0999 41.681 27.4239 42.2139 26.8928C42.7468 26.3618 43.4262 25.9994 44.1664 25.8516C44.6589 25.7532 45.166 25.7523 45.6588 25.8488C46.1516 25.9453 46.6203 26.1374 47.0383 26.414C47.4562 26.6906 47.8151 27.0464 48.0943 27.4609C48.3736 27.8754 48.5678 28.3405 48.6657 28.8297Z" fill="url(#paint4_linear)"/>
<path d="M46.9761 29.1647C47.0583 29.5687 47.0179 29.9879 46.8602 30.3693C46.7024 30.7506 46.4343 31.0769 46.0898 31.307C45.7452 31.537 45.3397 31.6605 44.9245 31.6618C44.5092 31.6631 44.1029 31.5421 43.7569 31.3141C43.411 31.0862 43.1408 30.7615 42.9807 30.3812C42.8206 30.0008 42.7776 29.5819 42.8573 29.1773C42.937 28.7728 43.1357 28.4007 43.4284 28.1083C43.721 27.8159 44.0945 27.6161 44.5015 27.5343C44.7718 27.48 45.0502 27.4791 45.3209 27.5317C45.5916 27.5842 45.8492 27.6892 46.079 27.8406C46.3088 27.992 46.5063 28.1868 46.6602 28.414C46.8141 28.6412 46.9215 28.8963 46.9761 29.1647Z" fill="#282F70"/>
<path d="M44.6838 29.9219L40.3121 16.0414C40.3121 16.0414 41.6793 15.0686 43.9165 15.6692L45.2962 29.7903C45.3044 29.8361 45.3023 29.8832 45.2898 29.928C45.2774 29.9729 45.255 30.0144 45.2244 30.0496C45.1937 30.0848 45.1555 30.1128 45.1126 30.1315C45.0697 30.1501 45.0231 30.1591 44.9763 30.1576C44.9084 30.1553 44.843 30.131 44.7903 30.0884C44.7375 30.0459 44.7001 29.9874 44.6838 29.9219Z" fill="url(#paint5_linear)"/>
<path d="M63.8682 16.451C63.9996 17.1028 63.9758 17.7762 63.7987 18.4173C63.6217 19.0584 63.2962 19.6496 62.8484 20.1438C62.2191 20.8623 61.3761 21.3637 60.4412 21.5755C59.5062 21.7874 58.5277 21.6989 57.6467 21.3226L55.987 22.2583L56.4569 20.5707C55.6949 19.898 55.1804 18.9925 54.9946 17.9971C54.8657 17.3373 54.8947 16.6568 55.0792 16.0102C55.2637 15.3636 55.5986 14.769 56.057 14.2745C56.6199 13.6486 57.3485 13.1921 58.1598 12.9569C58.9711 12.7217 59.8325 12.7172 60.6463 12.9439C61.46 13.1706 62.1933 13.6195 62.7629 14.2395C63.3325 14.8595 63.7154 15.6256 63.8682 16.451Z" fill="#5F25DD"/>
<path d="M59.9163 19.2005C59.8855 19.2917 59.8308 19.373 59.7578 19.4362C59.6848 19.4993 59.5962 19.542 59.501 19.5599C59.4059 19.5777 59.3077 19.5701 59.2165 19.5378C59.1253 19.5054 59.0445 19.4496 58.9823 19.3759C58.92 19.3023 58.8787 19.2135 58.8625 19.1187C58.8464 19.0239 58.8559 18.9266 58.8902 18.8367C58.9245 18.7468 58.9823 18.6676 59.0576 18.6072C59.133 18.5468 59.2232 18.5075 59.3189 18.4932C59.4098 18.4854 59.5013 18.4994 59.5856 18.534C59.6699 18.5687 59.7445 18.6231 59.8031 18.6925C59.8617 18.7619 59.9026 18.8443 59.9223 18.9328C59.9421 19.0212 59.94 19.1131 59.9163 19.2005ZM59.4164 17.9746C59.3235 17.9751 59.2338 17.9414 59.1645 17.8799C59.0952 17.8185 59.0514 17.7337 59.0415 17.642L58.924 16.5699C58.909 16.3217 58.8965 16.0462 58.8815 15.7857V15.5573C58.8802 15.4873 58.8929 15.4177 58.9189 15.3526C58.9449 15.2875 58.9837 15.2281 59.033 15.178C59.0823 15.1279 59.1411 15.088 59.2061 15.0607C59.2711 15.0334 59.3409 15.0191 59.4114 15.0188C59.5526 15.0188 59.688 15.0745 59.7879 15.1736C59.8877 15.2728 59.9438 15.4072 59.9438 15.5474V15.7757C59.9288 16.0239 59.9163 16.2994 59.9013 16.56L59.7839 17.6321C59.7763 17.7251 59.7339 17.812 59.6649 17.8754C59.5959 17.9389 59.5054 17.9742 59.4114 17.9746H59.4164Z" fill="white"/>
<path d="M17.5132 28.1225C16.7524 28.1723 16.0139 28.3985 15.3571 28.783C14.7004 29.1674 14.1435 29.6994 13.7313 30.3362C13.1245 31.2373 12.8217 32.3065 12.8667 33.3896C12.9116 34.4726 13.3019 35.5134 13.9813 36.3619L13.4413 38.4516L15.1686 37.439C16.1397 38.0686 17.2947 38.3586 18.4505 38.263C19.2219 38.2084 19.9694 37.9741 20.6326 37.5792C21.2957 37.1842 21.8558 36.6397 22.2674 35.9897C22.7911 35.1876 23.0775 34.2558 23.0943 33.3001C23.111 32.3444 22.8573 31.4033 22.362 30.5837C21.8667 29.7641 21.1497 29.0989 20.2925 28.6638C19.4353 28.2287 18.4724 28.0412 17.5132 28.1225Z" fill="#5F25DD"/>
<path d="M15.8985 33.6442C15.8358 33.6442 15.7737 33.632 15.7158 33.6081C15.6579 33.5843 15.6052 33.5494 15.5609 33.5054C15.5166 33.4614 15.4814 33.4091 15.4574 33.3516C15.4334 33.2941 15.4211 33.2325 15.4211 33.1703C15.4211 33.108 15.4334 33.0464 15.4574 32.9889C15.4814 32.9314 15.5166 32.8791 15.5609 32.8351C15.6052 32.7911 15.6579 32.7562 15.7158 32.7324C15.7737 32.7086 15.8358 32.6963 15.8985 32.6963C15.9612 32.6963 16.0233 32.7086 16.0812 32.7324C16.1391 32.7562 16.1918 32.7911 16.2361 32.8351C16.2804 32.8791 16.3156 32.9314 16.3396 32.9889C16.3636 33.0464 16.3759 33.108 16.3759 33.1703C16.3759 33.2325 16.3636 33.2941 16.3396 33.3516C16.3156 33.4091 16.2804 33.4614 16.2361 33.5054C16.1918 33.5494 16.1391 33.5843 16.0812 33.6081C16.0233 33.632 15.9612 33.6442 15.8985 33.6442Z" fill="white"/>
<path d="M17.9806 33.6442C17.9179 33.6442 17.8558 33.632 17.7979 33.6081C17.74 33.5843 17.6874 33.5494 17.643 33.5054C17.5987 33.4614 17.5635 33.4091 17.5395 33.3516C17.5155 33.2941 17.5032 33.2325 17.5032 33.1703C17.5032 33.108 17.5155 33.0464 17.5395 32.9889C17.5635 32.9314 17.5987 32.8791 17.643 32.8351C17.6874 32.7911 17.74 32.7562 17.7979 32.7324C17.8558 32.7086 17.9179 32.6963 17.9806 32.6963C18.0433 32.6963 18.1054 32.7086 18.1633 32.7324C18.2212 32.7562 18.2739 32.7911 18.3182 32.8351C18.3625 32.8791 18.3977 32.9314 18.4217 32.9889C18.4457 33.0464 18.458 33.108 18.458 33.1703C18.458 33.2325 18.4457 33.2941 18.4217 33.3516C18.3977 33.4091 18.3625 33.4614 18.3182 33.5054C18.2739 33.5494 18.2212 33.5843 18.1633 33.6081C18.1054 33.632 18.0433 33.6442 17.9806 33.6442Z" fill="white"/>
<path d="M20.0554 33.6442C19.9287 33.6442 19.8073 33.5943 19.7178 33.5054C19.6282 33.4165 19.5779 33.296 19.5779 33.1703C19.5779 33.0446 19.6282 32.924 19.7178 32.8351C19.8073 32.7462 19.9287 32.6963 20.0554 32.6963C20.1181 32.6963 20.1801 32.7086 20.2381 32.7324C20.296 32.7562 20.3486 32.7911 20.393 32.8351C20.4373 32.8791 20.4725 32.9314 20.4964 32.9889C20.5204 33.0464 20.5328 33.108 20.5328 33.1703C20.5328 33.2325 20.5204 33.2941 20.4964 33.3516C20.4725 33.4091 20.4373 33.4614 20.393 33.5054C20.3486 33.5494 20.296 33.5843 20.2381 33.6081C20.1801 33.632 20.1181 33.6442 20.0554 33.6442Z" fill="white"/>
<defs>
<linearGradient id="paint0_linear" x1="18.7531" y1="58.1961" x2="24.5221" y2="58.1961" gradientUnits="userSpaceOnUse">
<stop stop-color="#F2CFC4"/>
<stop offset="1" stop-color="#FDF6F4"/>
</linearGradient>
<linearGradient id="paint1_linear" x1="2915.7" y1="6634.06" x2="4366.11" y2="6634.06" gradientUnits="userSpaceOnUse">
<stop stop-color="#F2CFC4"/>
<stop offset="1" stop-color="#FDF6F4"/>
</linearGradient>
<linearGradient id="paint2_linear" x1="47.0584" y1="60.8591" x2="47.6714" y2="38.3637" gradientUnits="userSpaceOnUse">
<stop stop-color="#AC46C7"/>
<stop offset="1" stop-color="#2C3582"/>
</linearGradient>
<linearGradient id="paint3_linear" x1="661.006" y1="1013.22" x2="715.634" y2="935.079" gradientUnits="userSpaceOnUse">
<stop stop-color="#F2CFC4"/>
<stop offset="1" stop-color="#FDF6F4"/>
</linearGradient>
<linearGradient id="paint4_linear" x1="1381.78" y1="910.628" x2="1615.22" y2="910.628" gradientUnits="userSpaceOnUse">
<stop stop-color="#AC46C7"/>
<stop offset="1" stop-color="#2C3582"/>
</linearGradient>
<linearGradient id="paint5_linear" x1="900.125" y1="1328.26" x2="999.657" y2="1328.26" gradientUnits="userSpaceOnUse">
<stop stop-color="#AC46C7"/>
<stop offset="1" stop-color="#2C3582"/>
</linearGradient>
</defs>
</svg>
